# xmcd
#
# Track frame offsets:
#	150
#	13640
#	29413
#	44935
#	59679
#	71843
#	87902
#	98107
#	109830
#	124950
#	136828
#	150879
#	166779
#	181964
#	194163
#	205391
#	216852
#	229094
#	241689
#	253165
#	263632
#	276654
#
# Disc length: 3906 seconds
#
# Revision: 1
# Processed by: cddbd v1.5.2PL0 Copyright (c) Steve Scherf et al.
# Submitted via: audiograbber 1.83.01
#
DISCID=4c0f4016
DTITLE=ATAÍDE E ALEXANDRE - aS 20 MAIS
DYEAR=1900
DGENRE=SERTANJEO
TTITLE0=ACORDO PRA SONHAR
TTITLE1=AGENDA RABISCADA
TTITLE2=CHUVA DE MULHER
TTITLE3=LIGUEI PRA DIZER QUE TE AMO
TTITLE4=SÓ OUTRA PAIXÃO
TTITLE5=A FLOR DA VIDA
TTITLE6=AMOR CARRAPIXHO
TTITLE7=CHORADEIRA
TTITLE8=MEU CORAÇÃO FAZ TUM, TUM
TTITLE9=TÔ NERVOSO.. VAI PESCAR
TTITLE10=UAI SÔ
TTITLE11=AMOR DE ARREPIAR
TTITLE12=EU ME ENGANEI
TTITLE13=A BEBIDA NÃO CURA
TTITLE14=ESTRADA DO AMOR
TTITLE15=PAIXÃO É BUCHA
TTITLE16=DESATA
TTITLE17=APAZIGUAR
TTITLE18=SOBROU PRA MIM
TTITLE19=LADO FEMININO
TTITLE20=TE AMO Q MAIS POSSO DIZER
TTITLE21=ONTEM A NOITE PERGUNTEI POR VOCÊ
EXTD=
EXTT0=
EXTT1=
EXTT2=
EXTT3=
EXTT4=
EXTT5=
EXTT6=
EXTT7=
EXTT8=
EXTT9=
EXTT10=
EXTT11=
EXTT12=
EXTT13=
EXTT14=
EXTT15=
EXTT16=
EXTT17=
EXTT18=
EXTT19=
EXTT20=
EXTT21=
PLAYORDER=
